<?xml version="1.0" standalone="no"?>
<!DOCTYPE svg PUBLIC "-//W3C//DTD SVG 20010904//EN"
 "http://www.w3.org/TR/2001/REC-SVG-20010904/DTD/svg10.dtd">
<svg version="1.0" xmlns="http://www.w3.org/2000/svg"
 width="2026.000000pt" height="2026.000000pt" viewBox="0 0 2026.000000 2026.000000"
 preserveAspectRatio="xMidYMid meet">
<metadata>
Created by potrace 1.11, written by Peter Selinger 2001-2013
</metadata>
<g transform="translate(0.000000,2026.000000) scale(0.100000,-0.100000)"
fill="#000000" stroke="none">
<path d="M6298 19198 c-109 -135 -236 -347 -392 -649 -96 -187 -251 -512 -321
-674 l-17 -40 -23 110 c-109 531 -494 900 -1080 1038 -218 51 -319 62 -605 62
-273 0 -355 -8 -611 -55 -266 -50 -626 -157 -854 -255 -267 -114 -529 -279
-768 -484 -331 -283 -544 -721 -564 -1156 -10 -233 37 -450 142 -653 186 -358
520 -651 1277 -1120 467 -289 681 -502 754 -748 21 -72 24 -226 5 -304 -55
-229 -291 -449 -560 -522 -62 -17 -107 -21 -241 -22 -157 -1 -170 0 -254 28
-196 64 -327 192 -410 399 -45 114 -59 206 -53 352 6 140 26 229 76 340 30 66
98 172 125 194 25 21 19 34 -32 69 -66 45 -131 63 -227 63 -101 1 -161 -13
-252 -57 -127 -63 -237 -181 -317 -342 -64 -127 -93 -317 -75 -498 47 -500
398 -850 949 -945 90 -15 160 -20 318 -19 350 0 558 45 827 175 275 133 469
320 591 570 94 195 131 368 121 580 -16 361 -225 682 -682 1051 -83 66 -265
206 -405 311 -462 345 -627 509 -743 738 -71 142 -92 240 -84 403 4 90 11 136
32 197 122 366 512 711 1046 924 292 116 548 169 869 178 471 14 801 -87 1017
-309 76 -78 122 -151 158 -248 37 -98 46 -279 21 -380 -48 -188 -181 -372
-355 -489 -415 -282 -1137 -305 -1549 -50 -52 32 -79 43 -84 36 -19 -35 -40
-153 -41 -232 -1 -108 14 -176 58 -270 80 -168 273 -324 485 -390 83 -27 393
-33 533 -11 341 54 684 211 917 422 22 20 40 33 40 28 0 -4 -49 -156 -109
-338 -237 -716 -367 -1244 -440 -1781 -57 -424 -49 -615 33 -791 44 -94 84
-137 164 -176 63 -31 73 -33 172 -33 97 0 110 2 170 31 l66 31 17 200 c35 403
110 834 217 1260 63 246 94 336 184 530 133 286 280 520 446 709 214 244 481
338 563 197 47 -82 40 -283 -18 -506 -19 -73 -79 -274 -135 -447 -228 -709
-315 -1092 -319 -1406 -4 -291 66 -451 235 -541 158 -84 461 -85 649 -2 281
122 564 471 836 1029 55 113 138 279 184 370 167 331 614 1313 778 1710 l27
65 133 0 133 0 -56 -120 c-243 -516 -511 -1290 -605 -1751 -152 -740 -28
-1235 337 -1345 61 -19 86 -21 187 -16 177 8 315 55 477 163 159 105 361 321
501 535 32 49 61 89 66 89 4 0 7 -33 7 -73 0 -148 51 -355 116 -471 38 -68
124 -157 181 -188 89 -49 154 -61 282 -55 94 5 224 27 239 42 2 2 -29 67 -69
146 -39 79 -163 330 -275 558 l-204 413 80 -73 c44 -41 147 -139 230 -218
l150 -143 1 83 c0 46 4 108 8 138 5 37 0 121 -15 265 -32 288 -36 267 36 205
33 -29 62 -50 63 -48 2 2 16 49 31 104 130 467 419 1205 634 1620 l59 113 -31
59 c-45 84 -146 183 -232 226 -98 49 -170 67 -304 74 l-116 6 -78 -164 c-266
-555 -556 -1334 -676 -1819 -23 -90 -44 -149 -77 -210 -182 -336 -403 -615
-592 -748 -152 -107 -262 -105 -309 6 -60 138 -28 417 93 834 116 396 261 792
406 1111 60 130 229 471 265 534 l19 33 -34 66 c-68 132 -207 238 -366 279
-96 25 -257 31 -342 11 -81 -18 -180 -21 -234 -6 l-36 10 28 109 c45 173 62
317 56 461 -6 146 -22 214 -77 326 -50 103 -139 191 -227 224 -85 32 -207 26
-282 -15 -216 -118 -314 -528 -203 -844 59 -164 203 -343 345 -425 l66 -38
-15 -37 c-8 -20 -30 -72 -49 -117 -104 -249 -437 -966 -671 -1442 -70 -141
-153 -312 -186 -378 -183 -378 -401 -665 -561 -744 -127 -62 -220 -49 -264 40
-33 63 -32 209 2 374 27 134 131 463 232 736 84 225 208 594 233 690 49 191
67 461 40 607 -47 263 -218 462 -439 513 -71 17 -221 7 -326 -20 -229 -60
-438 -182 -646 -378 -46 -42 -80 -70 -77 -62 328 848 727 1689 1058 2229 100
163 100 174 11 260 -93 90 -234 163 -415 215 -130 38 -156 36 -198 -16z m2355
-1668 c34 -27 47 -76 47 -174 0 -79 -25 -269 -40 -295 -11 -20 -76 90 -103
174 -25 82 -29 203 -8 253 12 28 50 60 72 62 4 0 18 -9 32 -20z"/>
<path d="M18423 18265 c-11 -8 -26 -35 -32 -62 -33 -131 -204 -695 -298 -986
l-107 -328 -69 -36 c-37 -20 -91 -53 -119 -73 l-50 -36 -57 56 c-101 101 -292
195 -384 188 -40 -3 -45 -7 -109 -92 -200 -266 -505 -864 -803 -1571 -51 -121
-134 -327 -184 -458 -54 -140 -113 -274 -143 -325 -173 -293 -321 -468 -451
-532 -127 -62 -218 -48 -265 41 -22 41 -23 52 -19 179 4 104 12 162 36 255 39
157 123 415 228 700 244 662 303 913 275 1181 -32 299 -168 505 -388 585 -71
26 -233 31 -329 10 -155 -34 -323 -109 -455 -202 -84 -59 -245 -212 -311 -294
-24 -30 -45 -53 -47 -51 -1 2 -12 41 -23 87 -61 258 -230 432 -456 471 -178
30 -480 -61 -677 -204 -87 -63 -89 -64 -106 -32 -8 15 -45 55 -82 89 -122 113
-278 169 -453 163 l-90 -3 -106 -210 c-216 -429 -420 -959 -554 -1436 l-46
-166 267 -539 c146 -297 268 -534 270 -529 2 6 17 82 34 170 39 203 59 275
186 687 178 577 316 909 481 1162 198 304 474 425 533 234 16 -53 16 -202 0
-300 -19 -114 -64 -300 -113 -458 -155 -499 -251 -903 -303 -1275 -26 -182
-24 -435 4 -548 27 -108 51 -156 110 -219 57 -61 134 -101 235 -122 77 -16
286 -22 288 -8 4 22 7 68 13 162 23 352 112 789 272 1343 238 818 429 1222
670 1415 78 62 152 94 234 99 82 5 122 -16 153 -85 18 -39 21 -64 21 -157 -2
-177 -41 -341 -199 -825 -176 -541 -262 -889 -295 -1199 -15 -134 -8 -331 14
-414 51 -186 164 -292 356 -333 103 -22 329 -14 415 14 122 40 223 97 329 188
42 36 76 61 76 56 0 -5 -7 -29 -16 -53 -54 -153 -199 -709 -246 -939 l-23
-115 -74 -80 c-120 -129 -469 -480 -552 -555 l-76 -69 -1504 -35 c-827 -20
-1702 -40 -1944 -46 -242 -5 -465 -10 -496 -10 l-56 0 -569 -797 c-611 -857
-657 -914 -801 -1003 -40 -25 -73 -49 -73 -53 0 -11 233 -162 370 -239 524
-297 1018 -465 1496 -509 378 -34 911 56 1317 225 236 98 512 258 704 408 155
121 189 156 936 942 l246 260 113 41 c62 23 300 112 529 198 230 86 421 157
425 157 5 0 40 -31 78 -70 112 -114 208 -166 330 -177 69 -6 173 15 236 47 46
23 44 16 60 245 18 255 -1 221 158 282 76 29 212 80 305 114 92 34 166 63 165
64 -2 1 -131 -1 -288 -5 -157 -4 -288 -6 -291 -4 -3 2 2 65 12 140 15 111 22
139 38 150 50 36 252 196 363 288 308 258 580 514 886 836 168 176 205 210
267 244 417 224 854 769 1095 1367 29 73 68 147 105 200 353 503 955 1471 955
1535 0 35 -29 64 -63 64 -18 0 -37 -4 -44 -8 -6 -4 -81 -122 -165 -262 -203
-336 -594 -939 -609 -940 -4 0 -3 19 2 43 39 181 46 540 15 709 -50 267 -176
487 -347 604 -107 73 -178 95 -320 101 -86 4 -138 1 -199 -11 -45 -10 -83 -16
-85 -14 -1 2 31 107 72 233 60 189 198 660 278 952 20 73 15 105 -20 121 -34
16 -46 15 -72 -3z m-254 -1794 c148 -76 210 -313 166 -636 -80 -598 -424
-1323 -797 -1681 -138 -132 -254 -203 -349 -211 -49 -5 -67 -2 -113 21 -57 28
-142 112 -151 150 -4 14 28 82 106 221 189 341 416 803 586 1195 92 212 277
672 338 840 21 58 43 111 49 119 14 18 114 8 165 -18z m-378 -103 c-172 -445
-445 -1042 -663 -1453 -111 -209 -245 -446 -260 -460 -18 -17 -1 188 27 320
104 498 382 1076 682 1417 65 74 200 198 215 198 4 0 4 -10 -1 -22z m-1032
-2638 c102 -179 290 -296 494 -308 48 -2 87 -8 87 -12 0 -20 -544 -515 -775
-706 -181 -149 -205 -167 -211 -161 -12 11 127 662 197 927 17 63 40 131 52
150 54 89 109 170 115 170 4 0 22 -27 41 -60z m-1331 -1730 l-13 -105 -124 -3
-124 -3 134 129 c153 147 147 148 127 -18z"/>
<path d="M11383 18225 c-92 -28 -200 -120 -255 -215 -85 -147 -80 -377 12
-520 43 -67 127 -142 198 -177 52 -26 67 -28 167 -28 104 0 114 2 176 32 137
68 237 209 260 366 35 238 -100 473 -307 537 -76 23 -187 26 -251 5z"/>
<path d="M11641 14840 l-55 -107 68 -64 c38 -35 72 -65 75 -67 6 -2 -19 263
-31 328 -2 9 -27 -31 -57 -90z"/>
<path d="M12071 13501 c-129 -65 -133 -68 -101 -74 18 -4 79 -7 136 -7 l104 0
0 29 c0 15 3 49 6 75 4 25 3 46 -2 45 -5 0 -69 -31 -143 -68z"/>
<path d="M7086 13253 c-2 -10 -28 -119 -56 -243 -46 -199 -108 -463 -265
-1126 -37 -156 -45 -208 -45 -285 1 -218 72 -391 225 -544 116 -116 229 -177
387 -209 187 -39 386 -4 556 95 31 19 95 72 142 119 106 106 143 174 245 452
40 112 126 347 190 523 64 176 152 417 195 535 43 118 90 246 104 284 15 38
23 73 19 77 -9 8 -239 73 -438 123 -291 73 -727 153 -1058 196 -192 24 -194
24 -201 3z"/>
<path d="M6585 13229 c-357 -40 -786 -124 -1074 -211 l-104 -32 7 -206 c3
-113 11 -394 17 -625 11 -443 17 -500 63 -600 56 -122 172 -237 292 -291 63
-28 185 -54 254 -54 141 0 289 60 395 161 131 124 179 237 195 457 15 198 48
621 84 1077 3 33 8 101 11 150 3 50 8 111 11 138 l6 47 -39 -1 c-21 -1 -74 -6
-118 -10z"/>
<path d="M11879 13107 c-91 -31 -172 -83 -230 -145 -27 -30 -49 -57 -49 -62 0
-4 95 -72 211 -150 116 -78 209 -144 206 -146 -2 -2 -107 10 -232 26 -126 17
-240 30 -252 30 -32 0 -38 -35 -25 -134 37 -266 267 -466 535 -466 228 1 434
149 508 367 31 91 32 250 2 335 -61 173 -204 308 -374 353 -84 23 -221 19
-300 -8z"/>
<path d="M13180 13064 c-116 -30 -241 -111 -300 -194 l-19 -27 97 -66 c251
-169 331 -227 315 -227 -10 0 -124 13 -253 30 -129 16 -238 30 -242 30 -12 0
-10 -122 3 -182 18 -89 76 -194 144 -262 107 -107 227 -156 380 -156 153 0
275 50 380 155 207 207 210 531 9 745 -133 140 -335 201 -514 154z"/>
<path d="M5030 12879 c-146 -87 -330 -213 -460 -314 -131 -103 -360 -303 -360
-315 0 -23 269 -741 298 -795 86 -160 286 -257 468 -226 262 44 434 301 370
551 -12 48 -135 698 -181 955 -27 152 -36 195 -43 195 -4 -1 -45 -23 -92 -51z"/>
<path d="M8937 12687 c-25 -56 -66 -145 -90 -197 -46 -98 -195 -422 -389 -845
-61 -132 -141 -304 -179 -382 -88 -179 -110 -262 -110 -408 0 -391 275 -709
660 -766 293 -42 580 87 754 341 17 25 97 128 177 230 441 560 860 1109 913
1199 l18 30 -83 71 c-303 261 -1015 639 -1495 794 -62 20 -116 36 -121 36 -5
0 -29 -46 -55 -103z"/>
<path d="M3993 12064 c-168 -211 -437 -649 -416 -677 112 -143 221 -277 242
-295 14 -13 49 -35 76 -50 45 -24 60 -27 150 -27 95 0 103 2 163 34 98 53 152
128 172 240 15 86 7 127 -55 262 -29 63 -87 196 -128 295 -41 98 -88 208 -104
243 l-29 64 -71 -89z"/>
<path d="M2687 11275 c-194 -32 -388 -99 -509 -177 -90 -58 -224 -198 -281
-295 -101 -170 -138 -348 -103 -498 67 -285 401 -496 680 -431 175 41 308 155
584 501 174 217 291 344 393 425 60 48 95 50 118 9 14 -26 12 -31 -86 -180
-213 -324 -318 -606 -330 -882 -3 -70 -9 -129 -12 -131 -4 -3 -75 -18 -158
-35 -743 -153 -1375 -477 -1823 -938 -168 -172 -271 -315 -348 -483 -100 -221
-119 -489 -48 -685 62 -172 231 -330 397 -370 105 -26 324 -17 484 19 139 32
312 93 487 171 68 30 126 55 130 55 4 0 -18 -53 -49 -117 -272 -578 -581
-1368 -717 -1838 -108 -373 -216 -903 -216 -1062 0 -104 43 -220 111 -296 48
-56 157 -113 231 -122 65 -8 177 14 244 48 l49 25 18 153 c56 479 183 1069
333 1544 26 83 49 160 52 173 2 12 8 22 12 22 4 0 24 -48 45 -107 104 -303
279 -693 424 -948 84 -147 272 -428 366 -545 170 -214 443 -489 605 -611 119
-89 247 -152 391 -191 111 -30 376 -33 479 -5 179 49 352 139 453 235 71 68
50 94 -125 152 -118 39 -396 176 -543 269 -244 152 -594 479 -831 775 -217
271 -538 775 -704 1106 -57 114 -66 100 70 121 126 19 354 68 509 109 602 161
1093 387 1501 694 114 86 329 292 411 394 261 325 410 699 426 1067 13 325
-84 584 -298 796 -217 215 -575 370 -999 433 -156 24 -160 25 -160 40 0 7 -72
158 -160 335 -163 328 -206 432 -241 578 -21 89 -17 112 22 133 35 19 61 -8
88 -91 108 -343 347 -615 605 -689 195 -56 378 -24 495 85 93 87 138 214 128
362 -6 104 -38 175 -109 246 -90 89 -163 120 -508 217 -80 23 -189 57 -244 76
l-99 36 -56 -28 c-78 -38 -144 -54 -226 -54 -139 0 -241 46 -390 175 -230 199
-217 191 -346 216 -149 28 -488 36 -622 14z m547 -2012 c89 -187 258 -350 416
-403 263 -88 581 54 712 318 30 61 32 63 62 56 46 -9 193 -67 266 -104 302
-152 470 -403 470 -703 0 -297 -170 -696 -417 -981 -246 -284 -727 -542 -1213
-650 -129 -28 -409 -70 -575 -86 -106 -10 -315 -14 -315 -6 0 16 159 358 285
611 216 436 446 832 673 1159 34 49 62 99 62 111 0 11 -12 45 -26 74 -29 58
-98 119 -199 176 -73 41 -230 95 -278 95 -31 0 -38 -5 -63 -47 -129 -224 -467
-575 -771 -806 -556 -421 -1019 -554 -1124 -323 -68 149 42 491 230 718 117
141 249 249 470 382 302 183 687 327 1081 406 248 49 232 49 254 3z"/>
<path d="M6503 11248 c-127 -87 -275 -138 -428 -145 -131 -7 -228 13 -349 72
-92 44 -154 53 -227 32 -186 -55 -247 -284 -113 -427 117 -125 417 -164 630
-81 151 59 303 191 416 361 54 82 123 209 116 215 -2 2 -22 -10 -45 -27z"/>
<path d="M7988 10881 c-52 -39 -180 -104 -258 -131 -107 -36 -189 -50 -306
-50 -139 0 -224 21 -376 92 -105 49 -118 53 -188 53 -177 0 -311 -130 -314
-304 -2 -184 107 -294 351 -352 110 -27 276 -29 376 -5 293 69 532 281 722
639 26 48 43 87 38 86 -4 0 -25 -13 -45 -28z"/>
<path d="M7884 10349 c-111 -26 -209 -123 -240 -236 -45 -167 36 -316 235
-433 348 -203 723 -165 1091 109 96 72 265 234 257 247 -4 7 -40 1 -99 -15
-82 -22 -114 -24 -278 -25 -164 -1 -194 2 -263 22 -136 39 -243 102 -365 215
-40 38 -98 80 -126 93 -60 27 -152 38 -212 23z"/>
<path d="M13513 9876 c-40 -45 -93 -108 -118 -140 l-47 -57 82 -232 c45 -127
122 -344 170 -482 49 -137 118 -333 154 -435 55 -157 70 -190 100 -217 100
-92 266 -20 266 116 0 33 -26 110 -405 1181 -48 135 -94 265 -102 290 -9 25
-19 48 -22 52 -4 4 -39 -30 -78 -76z"/>
<path d="M15782 9738 c-313 -517 -656 -1217 -937 -1913 -296 -734 -500 -1407
-637 -2105 -38 -197 -42 -210 -98 -316 -150 -288 -408 -612 -584 -734 -93 -63
-189 -86 -246 -57 -126 64 -115 387 31 887 106 364 232 720 361 1014 66 152
255 538 311 636 l26 44 -32 60 c-104 196 -315 306 -585 306 l-69 0 -105 -212
c-57 -117 -112 -229 -120 -248 l-16 -35 -12 30 c-77 184 -146 294 -232 369
-61 54 -163 109 -230 126 -27 7 -48 16 -48 20 0 4 83 78 185 165 l185 157 -39
20 c-61 30 -124 90 -155 149 -16 30 -30 56 -32 58 -2 2 -91 -72 -198 -164
-135 -115 -198 -176 -205 -197 -17 -48 -13 -110 9 -146 11 -18 20 -34 20 -36
0 -2 -21 -7 -47 -11 -127 -18 -350 -116 -505 -221 -398 -271 -763 -758 -981
-1309 -160 -405 -236 -831 -207 -1164 18 -220 50 -342 128 -496 37 -72 64
-108 137 -181 146 -148 285 -201 495 -191 134 7 236 34 378 102 138 66 248
138 367 237 92 76 253 239 314 316 19 23 37 42 41 42 4 0 10 -31 13 -68 4 -38
18 -113 32 -167 63 -249 192 -404 375 -451 86 -22 254 -14 360 16 279 80 545
308 795 684 42 64 78 116 79 116 0 0 2 -39 4 -88 11 -361 120 -601 318 -698
66 -33 84 -38 172 -42 77 -3 115 0 180 16 202 51 404 198 605 440 74 89 277
385 277 403 0 5 5 9 10 9 6 0 10 -8 10 -19 0 -47 53 -221 94 -307 128 -269
328 -432 634 -516 66 -18 106 -22 277 -22 170 -1 217 3 313 22 333 67 651 229
940 477 220 189 393 406 550 687 54 98 59 111 52 147 -11 63 -41 104 -93 130
-26 13 -53 21 -60 18 -8 -3 -32 -36 -55 -75 -252 -424 -731 -771 -1169 -847
-289 -50 -465 28 -577 257 -26 51 -49 107 -52 125 l-6 31 38 -9 c69 -16 215
-10 300 11 104 26 298 124 406 204 275 205 548 562 692 904 94 225 140 400
155 586 20 247 -26 493 -121 648 -99 161 -349 273 -568 254 -579 -51 -1248
-689 -1569 -1496 -80 -200 -159 -476 -179 -627 -23 -166 -414 -685 -614 -816
-113 -74 -208 -88 -258 -39 -60 61 -76 224 -45 467 54 417 279 1230 523 1895
271 737 732 1699 1115 2328 108 178 109 182 60 243 -102 128 -350 258 -559
293 l-41 7 -81 -133z m-3156 -2684 c47 -22 92 -83 122 -162 20 -55 26 -92 30
-198 8 -225 -29 -448 -123 -736 -101 -313 -234 -592 -405 -852 -135 -205 -232
-317 -366 -426 -161 -129 -273 -166 -363 -118 -170 88 -203 391 -95 876 104
471 403 1059 693 1364 111 117 186 177 288 230 84 43 158 51 219 22z m4769
-168 c149 -63 89 -468 -131 -870 -89 -163 -170 -273 -289 -391 -111 -112 -179
-154 -258 -162 -47 -5 -56 -2 -84 21 -131 110 -67 457 155 846 204 358 404
567 545 570 15 0 43 -6 62 -14z"/>
<path d="M9695 9551 c-40 -39 -435 -256 -562 -309 l-51 -22 69 -182 c38 -100
73 -186 78 -191 12 -12 268 107 436 202 138 78 405 249 405 260 0 3 -35 29
-78 56 -42 28 -120 83 -174 123 -99 74 -107 78 -123 63z"/>
<path d="M12990 9343 c-36 -30 -102 -80 -148 -110 -57 -39 -81 -62 -77 -72 2
-9 30 -189 60 -401 86 -585 80 -563 149 -614 38 -29 134 -29 173 0 44 33 73
82 73 125 0 21 -15 138 -34 261 -19 123 -53 350 -76 505 -22 155 -44 299 -48
321 l-7 39 -65 -54z"/>
<path d="M6149 9247 c-115 -61 -141 -219 -53 -317 99 -110 697 -301 1139 -364
94 -14 357 -37 361 -33 1 1 4 95 6 208 l3 205 -135 13 c-351 31 -666 108
-1012 246 -185 75 -234 81 -309 42z"/>
<path d="M10115 9159 c-95 -109 -244 -251 -395 -377 -69 -57 -124 -109 -124
-116 1 -13 210 -312 224 -321 10 -6 118 79 270 210 147 128 493 488 479 499
-6 4 -381 186 -383 185 0 0 -32 -36 -71 -80z"/>
<path d="M8860 9135 c-269 -101 -613 -166 -1002 -191 l-98 -6 0 -205 0 -206
148 7 c360 18 668 75 1030 193 78 25 142 50 142 55 0 7 -77 213 -135 361 -9
21 -6 21 -85 -8z"/>
<path d="M10692 8892 c-46 -133 -178 -421 -258 -561 -55 -96 -191 -313 -229
-367 -5 -7 -7 -15 -5 -17 3 -2 76 -58 162 -125 l158 -122 33 46 c190 262 386
635 539 1027 l39 102 -5 -72 c-19 -237 -105 -605 -210 -898 -20 -55 -36 -105
-36 -111 0 -7 28 -23 63 -37 34 -14 117 -50 185 -81 l123 -55 11 27 c93 234
192 591 243 872 16 91 45 302 45 331 0 15 -15 18 -107 24 -223 13 -440 46
-635 96 -42 10 -78 19 -80 19 -1 0 -18 -44 -36 -98z"/>
<path d="M9368 8521 c-253 -167 -624 -336 -900 -412 -57 -16 -88 -29 -88 -38
0 -8 21 -98 46 -202 l45 -187 72 19 c368 101 766 284 1092 502 l64 43 -105
150 c-58 82 -111 157 -117 167 -7 9 -14 17 -17 16 -3 0 -44 -26 -92 -58z"/>
<path d="M13515 8009 c-77 -113 -141 -218 -146 -238 -33 -146 138 -252 256
-160 21 17 305 428 305 442 0 3 -20 7 -45 10 -63 9 -122 41 -181 99 l-51 50
-138 -203z"/>
<path d="M6815 8035 c-36 -9 -61 -25 -91 -58 -92 -96 -80 -223 27 -309 30 -25
56 -33 148 -49 397 -67 873 -67 1281 2 69 11 128 23 131 25 3 2 -15 92 -41
201 -41 177 -48 198 -65 196 -11 -1 -83 -11 -160 -22 -387 -56 -719 -49 -1155
24 -14 2 -47 -2 -75 -10z"/>
<path d="M10039 7753 c-90 -113 -387 -403 -509 -497 -63 -49 -160 -119 -215
-154 -55 -36 -101 -67 -103 -68 -6 -4 202 -354 210 -354 11 0 215 136 247 164
l24 21 -7 -30 c-10 -39 -283 -714 -300 -740 -16 -24 -256 -145 -399 -201 -54
-21 -114 -52 -134 -68 -108 -89 -92 -266 31 -336 59 -34 118 -39 186 -15 23 8
45 15 47 15 8 0 -103 -206 -183 -340 -205 -344 -417 -550 -567 -550 -28 0 -61
7 -78 17 -112 66 -104 359 21 818 44 161 194 619 255 776 l36 96 57 18 c173
54 622 254 622 277 0 7 -187 327 -200 341 -4 4 -59 -18 -123 -49 -65 -32 -120
-54 -123 -51 -4 3 38 96 93 207 l99 200 -25 43 c-124 209 -284 302 -554 322
l-97 7 -89 -183 c-92 -189 -244 -546 -321 -749 -24 -63 -45 -117 -46 -119 -2
-2 -25 -7 -51 -12 -70 -13 -120 -51 -149 -112 -13 -29 -24 -70 -24 -93 0 -43
43 -142 66 -151 8 -3 14 -12 14 -20 0 -8 -29 -107 -65 -221 -35 -114 -81 -270
-100 -347 -32 -124 -42 -149 -89 -220 -185 -280 -475 -455 -800 -483 -47 -4
-86 -4 -86 0 0 4 29 51 64 105 141 216 249 437 335 687 204 590 222 1153 48
1501 -116 233 -276 364 -493 402 -321 55 -697 -168 -957 -567 -56 -86 -167
-298 -167 -318 0 -20 -19 -23 -43 -8 -32 22 -135 56 -166 56 -22 0 -36 -16
-93 -104 -275 -423 -457 -929 -508 -1406 -12 -121 -5 -399 15 -505 57 -321
204 -548 419 -651 189 -91 421 -83 658 21 171 76 354 199 516 350 l74 68 206
2 c190 1 214 4 297 27 240 70 425 170 592 322 33 31 63 56 65 56 1 0 4 -61 5
-135 4 -293 74 -512 205 -645 92 -94 195 -133 343 -132 422 5 779 284 1110
867 98 172 286 554 336 684 5 13 12 22 14 19 9 -9 -135 -494 -239 -810 -63
-189 -184 -510 -258 -685 l-62 -145 -76 -35 c-41 -19 -97 -44 -125 -55 -269
-107 -818 -410 -1030 -568 -191 -143 -334 -287 -441 -446 -64 -97 -104 -182
-141 -301 -23 -76 -27 -107 -27 -223 -1 -116 2 -144 22 -201 103 -299 413
-400 847 -274 266 77 484 214 731 460 298 295 522 620 755 1094 l91 183 56 -7
c463 -56 866 -269 1061 -561 99 -147 158 -299 192 -494 11 -63 27 -136 35
-162 17 -52 63 -98 98 -98 66 0 252 138 339 252 165 216 227 490 164 730 -113
428 -482 696 -1089 789 -97 15 -204 22 -396 26 -237 5 -262 7 -256 22 68 164
342 984 464 1386 79 261 250 869 250 887 0 6 34 46 75 90 236 251 528 693 648
980 l15 36 -184 83 c-102 45 -186 80 -188 78 -2 -2 -38 -71 -81 -154 -42 -82
-82 -156 -89 -163 -10 -11 -22 -1 -61 53 -43 58 -140 145 -177 158 -10 3 -9 9
4 23 16 18 11 24 -143 142 -87 67 -163 122 -167 122 -5 0 -33 -30 -63 -67z
m-3652 -939 c60 -49 101 -110 125 -187 21 -64 23 -92 23 -257 -1 -133 -6 -213
-19 -285 -42 -233 -152 -605 -236 -795 -69 -158 -131 -271 -143 -263 -51 28
-142 101 -188 149 -71 76 -111 134 -159 236 -76 161 -110 323 -110 529 l0 119
54 108 54 108 -19 43 -19 43 32 57 c124 217 235 341 363 403 52 25 69 29 132
26 62 -3 76 -7 110 -34z m-784 -1806 c71 -100 148 -178 236 -243 l82 -60 -46
-42 c-25 -23 -69 -53 -98 -67 -220 -108 -367 52 -367 399 0 86 15 253 26 285
3 9 29 -31 63 -97 32 -62 79 -140 104 -175z m3032 -1595 c-339 -571 -723 -964
-1017 -1039 -182 -47 -257 38 -178 204 97 205 312 420 640 639 101 67 277 168
359 205 81 37 245 97 250 92 2 -2 -22 -47 -54 -101z"/>
</g>
</svg>
